#!OML:ASF E:\motion texture\Top Level 1\Subject 1\Session 1\male.ASF
:FULLY-SPECIFIED
:DEGREES
349
root -15.9648 17.9912 6.27395 27.3588 -81.6734 -18.6451
lowerback -3.57879 -4.09982 1.95434
upperback -4.10919 -5.612 5.43937
thorax -1.87499 -2.86261 4.4083
lowerneck 1.77138 -16.1366 -15.5085
upperneck 11.3039 -25.4733 20.2434
head 7.84395 -12.473 6.50218
rclavicle -1.27898e-014 2.8625e-014
rhumerus 2.69279 -55.5946 -37.7369
rradius 37.6975
rwrist -15.7365
rhand -13.78 -38.3666
rfingers 7.12502
rthumb 12.3412 -67.9824
lclavicle -1.27898e-014 2.8625e-014
lhumerus -19.2952 2.65648 92.6358
lradius 32.4861
lwrist -15.7123
lhand -19.1916 22.1598
lfingers 7.12502
lthumb 7.12023 52.02
rfemur -25.261 4.2331 22.4832
rtibia 13.2808
rfoot 4.82129 -18.829
rtoes 25.9686
lfemur 3.2048 -5.12438 -17.2813
ltibia 24.9579
lfoot -4.38079 -9.66717
ltoes -19.5344
350
root -16.1213 18.0131 6.25454 28.4203 -81.3407 -19.792
lowerback -3.57099 -4.11752 2.25433
upperback -4.06195 -5.64479 5.50883
thorax -1.85045 -2.88633 4.31172
lowerneck 1.73271 -16.0934 -15.4434
upperneck 11.397 -25.4116 20.1754
head 7.85008 -12.4387 6.48016
rclavicle 1.44507e-014 -4.77083e-015
rhumerus -0.10495 -53.7949 -35.348
rradius 38.82
rwrist -14.8262
rhand -14.5066 -38.2955
rfingers 7.12502
rthumb 11.6406 -67.9521
lclavicle 1.44507e-014 -4.77083e-015
lhumerus -19.1493 6.78691 91.5241
lradius 29.9286
lwrist -17.8016
lhand -19.7263 22.9493
lfingers 7.12502
lthumb 6.604 52.8263
rfemur -24.6164 4.01904 23.0274
rtibia 13.3577
rfoot 4.15084 -18.6311
rtoes 26.0491
lfemur 2.7723 -5.19088 -16.6385
ltibia 26.2322
lfoot -2.69692 -10.1162
ltoes -19.7664
351
root -16.2761 18.0358 6.2348 29.3515 -80.988 -20.8068
lowerback -3.56544 -4.14757 2.54042
upperback -4.00985 -5.69446 5.58665
thorax -1.81686 -2.91807 4.23077
lowerneck 1.66948 -16.0463 -15.3817
upperneck 11.5132 -25.3333 20.0594
head 7.85813 -12.3955 6.44381
rclavicle -2.00959e-014 8.42847e-014
rhumerus -2.76326 -51.8854 -33.2593
rradius 40.0189
rwrist -13.7502
rhand -15.1606 -38.1371
rfingers 7.12502
rthumb 11.0098 -67.8283
lclavicle -2.00959e-014 8.42847e-014
lhumerus -19.0718 11.335 90.2425
lradius 27.361
lwrist -20.3458
lhand -20.2193 23.9142
lfingers 7.12502
lthumb 6.12812 53.8056
rfemur -23.9632 3.55255 23.5906
rtibia 13.4057
rfoot 3.54562 -18.1892
rtoes 26.0465
lfemur 2.23702 -5.21123 -15.9688
ltibia 27.5806
lfoot -0.80865 -10.5298
ltoes -19.7109
352
root -16.4291 18.0583 6.21405 30.154 -80.6167 -21.6801
lowerback -3.56968 -4.19282 2.80052
upperback -3.96225 -5.76496 5.67611
thorax -1.7781 -2.95961 4.17531
lowerneck 1.59521 -15.993 -15.331
upperneck 11.6509 -25.2356 19.8926
head 7.86546 -12.3436 6.39496
rclavicle -2.00244e-014 1.90833e-014
rhumerus -5.28261 -49.8865 -31.475
rradius 41.2996
rwrist -12.6045
rhand -15.7348 -37.8987
rfingers 7.12502
rthumb 10.456 -67.6187
lclavicle -2.00244e-014 1.90833e-014
lhumerus -19.1254 16.3542 88.7379
lradius 24.8151
lwrist -23.4208
lhand -20.7754 24.9267
lfingers 7.12502
lthumb 5.59123 54.8329
rfemur -23.3257 2.96473 24.1482
rtibia 13.4377
rfoot 2.98604 -17.6275
rtoes 25.9774
lfemur 1.59692 -5.17876 -15.2737
ltibia 28.9856
lfoot 1.26119 -10.9023
ltoes -19.3486
353
root -16.5807 18.0795 6.1919 30.8285 -80.2379 -22.4145
lowerback -3.58216 -4.24915 3.02295
upperback -3.91922 -5.85042 5.7761
thorax -1.73434 -3.00778 4.15086
lowerneck 1.51046 -15.9372 -15.2907
upperneck 11.806 -25.1233 19.6757
head 7.87171 -12.2855 6.33294
rclavicle -2.55438e-014 -7.95139e-015
rhumerus -7.65276 -47.8766 -29.9985
rradius 42.6441
rwrist -11.4207
rhand -16.2672 -37.5941
rfingers 7.12502
rthumb 9.94236 -67.3393
lclavicle -2.55438e-014 -7.95139e-015
lhumerus -19.3977 21.882 86.9329
lradius 22.3364
lwrist -27.1413
lhand -21.3535 26.0058
lfingers 7.12502
lthumb 5.03304 55.926
rfemur -22.7121 2.36699 24.6864
rtibia 13.4711
rfoot 2.44755 -17.0599
rtoes 25.868
lfemur 0.8696 -5.08853 -14.5644
ltibia 30.4351
lfoot 3.46348 -11.236
ltoes -18.7013
354
root -16.7304 18.0985 6.16794 31.4145 -79.8581 -23.0477
lowerback -3.60004 -4.31426 3.20556
upperback -3.88533 -5.94741 5.88621
thorax -1.69173 -3.06092 4.15868
lowerneck 1.43795 -15.8741 -15.2687
upperneck 11.9659 -24.9937 19.4254
head 7.87205 -12.2218 6.26683
rclavicle -3.59241e-014 3.65764e-014
rhumerus -9.89115 -45.8665 -28.8123
rradius 44.0452
rwrist -10.2969
rhand -16.7885 -37.2412
rfingers 7.12502
rthumb 9.43944 -67.0098
lclavicle -3.59241e-014 3.65764e-014
lhumerus -20.0123 27.9626 84.7037
lradius 19.9597
lwrist -31.6255
lhand -21.9757 27.0932
lfingers 7.12502
lthumb 4.4322 57.0268
rfemur -22.1267 1.84548 25.2051
rtibia 13.5082
rfoot 1.91303 -16.5807
rtoes 25.75
lfemur 0.0637672 -4.94849 -13.8472
ltibia 31.9271
lfoot 5.73554 -11.5384
ltoes -17.7775
355
root -16.8785 18.1144 6.14208 31.9369 -79.4864 -23.6118
lowerback -3.62175 -4.38214 3.34884
upperback -3.85024 -6.04801 6.00094
thorax -1.6412 -3.11499 4.19238
lowerneck 1.36264 -15.811 -15.2525
upperneck 12.1296 -24.8569 19.1484
head 7.87016 -12.1557 6.19378
rclavicle -1.14177e-014 4.77083e-015
rhumerus -11.9943 -43.9084 -27.9144
rradius 45.4784
rwrist -9.31383
rhand -17.3822 -36.8626
rfingers 7.12502
rthumb 8.86651 -66.6563
lclavicle -1.14177e-014 4.77083e-015
lhumerus -21.1332 34.6467 81.8677
lradius 17.7263
lwrist -37.035
lhand -22.6356 28.2034
lfingers 7.12502
lthumb 3.79498 58.1493
rfemur -21.5606 1.42506 25.7117
rtibia 13.5451
rfoot 1.37717 -16.2211
rtoes 25.6428
lfemur -0.798683 -4.76602 -13.1316
ltibia 33.4608
lfoot 8.01682 -11.8239
ltoes -16.6439
356
root -17.0246 18.1266 6.11437 32.4829 -79.1347 -24.2025
lowerback -3.6412 -4.44553 3.466
upperback -3.80754 -6.1426 6.11688
thorax -1.58149 -3.16541 4.24149
lowerneck 1.27414 -15.7519 -15.2316
upperneck 12.3065 -24.7199 18.8431
head 7.87077 -12.0894 6.10964
rclavicle -2.28975e-014 1.11319e-014
rhumerus -13.9816 -42.0354 -27.2818
rradius 46.9217
rwrist -8.47081
rhand -17.9683 -36.4655
rfingers 7.12502
rthumb 8.30089 -66.2824
lclavicle -2.28975e-014 1.11319e-014
lhumerus -23.1005 41.9959 78.0745
lradius 15.6945
lwrist -43.5698
lhand -23.1769 29.3731
lfingers 7.12502
lthumb 3.27226 59.3278
rfemur -21.0011 1.09816 26.2273
rtibia 13.5711
rfoot 0.849999 -15.9674
rtoes 25.5371
lfemur -1.69652 -4.54399 -12.4155
ltibia 35.035
lfoot 10.2676 -12.0899
ltoes -15.2843
357
root -17.1687 18.1348 6.085 33.119 -78.8106 -24.897
lowerback -3.64382 -4.50001 3.56804
upperback -3.75422 -6.22463 6.23384
thorax -1.519 -3.20913 4.30112
lowerneck 1.1788 -15.6953 -15.2036
upperneck 12.4919 -24.5831 18.5195
head 7.8726 -12.0235 6.01793
rclavicle 8.68068e-014 -9.54166e-014
rhumerus -15.8604 -40.2867 -26.8934
rradius 48.3401
rwrist -7.7224
rhand -18.4611 -36.0164
rfingers 7.12502
rthumb 7.82532 -65.8516
lclavicle 8.68068e-014 -9.54166e-014
lhumerus -26.5982 50.0872 72.6211
lradius 13.9047
lwrist -51.4839
lhand -23.6082 30.5153
lfingers 7.12502
lthumb 2.8557 60.4759
rfemur -20.429 0.831078 26.7716
rtibia 13.5684
rfoot 0.347669 -15.7759
rtoes 25.4237
lfemur -2.60786 -4.28237 -11.6939
ltibia 36.6452
lfoot 12.4374 -12.3358
ltoes -13.689
358
root -17.3107 18.1393 6.05404 33.9173 -78.5222 -25.7738
lowerback -3.62321 -4.54035 3.66692
upperback -3.68657 -6.2871 6.35118
thorax -1.45507 -3.24289 4.36466
lowerneck 1.07433 -15.6415 -15.1628
upperneck 12.6882 -24.4488 18.182
head 7.87713 -11.9584 5.91863
rclavicle 4.90501e-014 -4.45278e-014
rhumerus -17.638 -38.664 -26.7357
rradius 49.7149
rwrist -7.1056
rhand -18.865 -35.5426
rfingers 7.12502
rthumb 7.4355 -65.392
lclavicle 4.90501e-014 -4.45278e-014
lhumerus -33.1597 58.7183 63.9854
lradius 12.4405
lwrist -60.8582
lhand -23.874 31.5634
lfingers 7.12502
lthumb 2.59903 61.5273
rfemur -19.8346 0.60137 27.3593
rtibia 13.5269
rfoot -0.110757 -15.6044
rtoes 25.2732
lfemur -3.51753 -3.97439 -10.9569
ltibia 38.2809
lfoot 14.4839 -12.5459
ltoes -11.9119
359
root -17.4505 18.1404 6.02187 34.8993 -78.2763 -26.8592
lowerback -3.57244 -4.56324 3.769
upperback -3.60217 -6.32524 6.46704
thorax -1.39221 -3.26441 4.4274
lowerneck 0.966244 -15.5886 -15.1072
upperneck 12.8872 -24.3152 17.8394
head 7.88153 -11.8938 5.81528
rclavicle 4.66274e-014 -8.26944e-014
rhumerus -19.3236 -37.1617 -26.7928
rradius 51.0316
rwrist -6.62038
rhand -19.1637 -35.0523
rfingers 7.12502
rthumb 7.14717 -64.9116
lclavicle 4.66274e-014 -8.26944e-014
lhumerus -46.0772 66.9294 48.9365
lradius 11.3802
lwrist -71.3434
lhand -23.8279 32.5205
lfingers 7.12502
lthumb 2.64356 62.4839
rfemur -19.211 0.392382 27.9902
rtibia 13.4446
rfoot -0.522201 -15.4195
rtoes 25.0796
lfemur -4.41403 -3.61535 -10.2056
ltibia 39.9339
lfoot 16.3315 -12.6875
ltoes -10.1129
360
root -17.5882 18.1391 5.98894 36.0786 -78.0748 -28.1673
lowerback -3.48904 -4.56781 3.88058
upperback -3.50182 -6.33773 6.58036
thorax -1.33356 -3.27317 4.48515
lowerneck 0.857221 -15.5339 -15.0414
upperneck 13.0851 -24.181 17.5046
head 7.88627 -11.8288 5.71308
rclavicle 1.27843e-014 -4.45278e-014
rhumerus -20.9226 -35.7606 -27.055
rradius 52.2822
rwrist -6.29637
rhand -19.3838 -34.5802
rfingers 7.12502
rthumb 6.93469 -64.4466
lclavicle 1.27843e-014 -4.45278e-014
lhumerus -70.0598 72.5173 22.8722
lradius 10.7438
lwrist -82.0766
lhand -23.5064 33.201
lfingers 7.12502
lthumb 2.95402 63.1603
rfemur -18.5571 0.205202 28.6585
rtibia 13.3249
rfoot -0.888403 -15.2077
rtoes 24.8632
lfemur -5.28917 -3.20186 -9.44247
ltibia 41.5903
lfoot 17.898 -12.7551
ltoes -8.47281
361
root -17.7237 18.1359 5.95532 37.4579 -77.9267 -29.698
lowerback -3.37133 -4.55273 3.99501
upperback -3.38793 -6.32221 6.68974
thorax -1.28211 -3.26788 4.54049
lowerneck 0.758128 -15.4718 -14.9709
upperneck 13.2732 -24.0411 17.1913
head 7.88831 -11.7618 5.61895
rclavicle 6.75371e-014 -9.70069e-014
rhumerus -22.4317 -34.4471 -27.5177
rradius 53.4516
rwrist -6.14162
rhand -19.5814 -34.1812
rfingers 7.12502
rthumb 6.74388 -64.0539
lclavicle 6.75371e-014 -9.70069e-014
lhumerus -99.2253 73.2009 -8.16932
lradius 10.4794
lwrist -91.7592
lhand -22.828 33.6026
lfingers 7.12502
lthumb 3.60917 63.5518
rfemur -17.8818 0.0789683 29.3489
rtibia 13.1852
rfoot -1.22086 -14.9896
rtoes 24.6299
lfemur -6.14212 -2.72466 -8.67468
ltibia 43.2485
lfoot 19.0769 -12.7574
ltoes -7.19962
362
root -17.857 18.1317 5.92157 39.0115 -77.8367 -31.4194
lowerback -3.22719 -4.51825 4.10992
upperback -3.25941 -6.27936 6.79037
thorax -1.23264 -3.24875 4.58875
lowerneck 0.663237 -15.3985 -14.9004
upperneck 13.4497 -23.8913 16.9109
head 7.88933 -11.6899 5.5373
rclavicle -2.06239e-014 1.19271e-013
rhumerus -23.8471 -33.2196 -28.176
rradius 54.5267
rwrist -6.14453
rhand -19.7506 -33.8656
rfingers 7.12502
rthumb 6.58059 -63.7434
lclavicle -2.06239e-014 1.19271e-013
lhumerus -118.248 70.7083 -28.7609
lradius 10.4536
lwrist -99.5162
lhand -21.858 33.6612
lfingers 7.12502
lthumb 4.54585 63.5925
rfemur -17.1956 0.0271582 30.0425
rtibia 13.0424
rfoot -1.53455 -14.7726
rtoes 24.3888
lfemur -6.97343 -2.18826 -7.92309
ltibia 44.9026
lfoot 19.7624 -12.6761
ltoes -6.47969
